<svg width="136.4" height="71.8" viewBox="0 0 136.4 71.8" xmlns="http://www.w3.org/2000/svg"><g id="svgGroup" stroke-linecap="round" fill-rule="evenodd" font-size="9pt" stroke="#000" stroke-width="0.25mm" fill="none" style="stroke:none;stroke-width:0.25mm;fill:#E91E63"><path d="M 79.7 71.6 L 71.6 68.3 L 99 0.8 L 109.4 0.8 L 136.4 68.3 L 127.7 71.8 L 119.9 51.8 L 87.5 51.8 L 79.7 71.6 Z M 27.5 70.8 L 27.5 1 Q 31.7 0.5 36.55 0.25 A 189.812 189.812 0 0 1 43.479 0.025 A 222.326 222.326 0 0 1 46.8 0 Q 53.3 0 58.4 1.6 Q 63.5 3.2 67 6 Q 70.5 8.8 72.3 12.75 A 20.294 20.294 0 0 1 74.098 20.978 A 23.338 23.338 0 0 1 74.1 21.3 A 24.885 24.885 0 0 1 73.528 26.743 A 19.97 19.97 0 0 1 71.95 31.25 Q 69.8 35.6 65.95 38.6 A 25.074 25.074 0 0 1 60.229 41.913 A 31.482 31.482 0 0 1 56.7 43.15 A 39.641 39.641 0 0 1 49.52 44.482 A 49.664 49.664 0 0 1 44.8 44.7 Q 40.6 44.7 37 44.4 L 37 70.8 L 27.5 70.8 Z M 9.5 70.8 L 0 70.8 L 0 0.8 L 9.5 0.8 L 9.5 70.8 Z M 37 8.4 L 37 36.3 Q 38.1 36.438 39.507 36.552 A 95.16 95.16 0 0 0 40.85 36.65 Q 42.784 36.779 45.197 36.797 A 106.907 106.907 0 0 0 46 36.8 Q 52.1 36.8 56.293 34.986 A 15.072 15.072 0 0 0 59.85 32.85 A 12.849 12.849 0 0 0 64.65 23.452 A 17.917 17.917 0 0 0 64.7 22.1 A 14.619 14.619 0 0 0 63.962 17.349 A 12.131 12.131 0 0 0 60.05 11.8 Q 56.408 8.824 50.219 8.179 A 34.952 34.952 0 0 0 46.6 8 A 131.125 131.125 0 0 0 43.342 8.039 A 109.939 109.939 0 0 0 41.5 8.1 A 91.274 91.274 0 0 0 38.617 8.264 A 75.041 75.041 0 0 0 37 8.4 Z M 103.7 10.2 L 90.5 43.8 L 116.8 43.8 L 103.7 10.2 Z" vector-effect="non-scaling-stroke"/></g></svg>